<svg width="150" height="36" viewBox="0 0 150 36" fill="none" xmlns="http://www.w3.org/2000/svg">
<path d="M54.053 36H53.9577C50.0986 35.9544 46.3935 34.4796 43.5586 31.8608L47.0238 28.1663C48.9262 29.9248 51.4131 30.9155 54.0036 30.9469H54.0707C56.6587 30.9306 59.149 29.9564 61.061 28.2121L64.4874 31.9243C61.6337 34.5276 57.9157 35.9798 54.053 36Z" fill="#713584"/>
<path d="M0 27.1358V6.04468H5.1237V22.6297H14.5242V27.1358H0Z" fill="#713584"/>
<path d="M18.1094 27.1358V11.1366H22.9331V27.1358H18.1094Z" fill="#713584"/>
<path d="M27.45 27.1359V11.1367H32.0373L32.129 13.0669C32.7203 12.3803 33.4487 11.8249 34.2674 11.4366C35.1209 11.0186 36.059 10.8025 37.0093 10.805C38.8195 10.805 40.1851 11.359 41.1379 12.4635C42.0906 13.5679 42.5493 15.1841 42.5493 17.3154V27.1359H37.6974V17.7071C37.6974 15.7546 36.874 14.8136 35.2273 14.8842C34.4482 14.855 33.6886 15.131 33.11 15.6534C32.8382 15.8912 32.6218 16.1856 32.4761 16.5161C32.3303 16.8465 32.2589 17.2049 32.2667 17.566V27.1359H27.45Z" fill="#713584"/>
<path d="M74.276 27.4393C72.729 27.4714 71.1996 27.1069 69.8333 26.3807C68.5607 25.6922 67.4985 24.6714 66.7598 23.4272C65.9932 22.1276 65.6012 20.6413 65.6271 19.1327C65.5977 17.6572 65.9744 16.202 66.7163 14.9262C67.4581 13.6504 68.5364 12.6031 69.8333 11.8989C71.201 11.1872 72.7201 10.8157 74.2619 10.8157C75.8036 10.8157 77.3227 11.1872 78.6904 11.8989C79.9578 12.5946 81.0183 13.6136 81.7639 14.8524C82.5307 16.1465 82.9217 17.6287 82.8931 19.1327C82.9203 20.641 82.5294 22.1273 81.7639 23.4272C81.0243 24.6707 79.9624 25.6912 78.6904 26.3807C77.3335 27.1049 75.8137 27.4694 74.276 27.4393ZM74.276 23.279C74.7819 23.2924 75.2846 23.1941 75.7481 22.991C76.2117 22.7878 76.6247 22.485 76.9578 22.1039C77.6745 21.2814 78.0417 20.2115 77.9811 19.1221C78.0448 18.0228 77.6778 16.9418 76.9578 16.1086C76.616 15.736 76.2005 15.4384 75.7376 15.2349C75.2747 15.0314 74.7746 14.9263 74.2689 14.9263C73.7633 14.9263 73.2631 15.0314 72.8002 15.2349C72.3374 15.4384 71.9218 15.736 71.58 16.1086C70.8508 16.9329 70.4711 18.0086 70.5214 19.108C70.4682 20.2025 70.8486 21.2739 71.58 22.0898C71.9155 22.4726 72.3306 22.7774 72.7964 22.9829C73.2621 23.1883 73.7671 23.2894 74.276 23.279Z" fill="#713584"/>
<path d="M86.0867 27.1359V4.83789H90.9104V27.1359H86.0867Z" fill="#713584"/>
<path d="M102.541 27.4394C100.939 27.4768 99.3539 27.1129 97.929 26.3808C96.6598 25.7131 95.6054 24.7002 94.8872 23.459C94.1535 22.1698 93.7782 20.7077 93.8004 19.2245C93.7698 17.7058 94.1346 16.2053 94.859 14.8701C95.5388 13.6375 96.5384 12.6111 97.7525 11.8989C99.025 11.1655 100.473 10.7911 101.941 10.8156C103.335 10.7926 104.707 11.1592 105.904 11.8742C107.049 12.5674 107.982 13.5623 108.6 14.7501C109.257 16.0297 109.569 17.4591 109.503 18.8964L109.482 20.1773H98.4724C98.7079 21.0856 99.2645 21.8779 100.039 22.4074C100.765 22.8352 101.574 23.1022 102.411 23.1905C103.249 23.2787 104.096 23.1862 104.895 22.9191C105.519 22.6628 106.103 22.3169 106.627 21.8922L108.886 25.0893C107.988 25.8596 106.955 26.4577 105.84 26.8536C104.782 27.2362 103.666 27.4344 102.541 27.4394ZM101.998 14.8419C100.05 14.8419 98.8735 15.7158 98.4689 17.4637H105.036V17.4355C105.016 17.0767 104.923 16.7258 104.763 16.4042C104.603 16.0827 104.379 15.7972 104.104 15.5652C103.514 15.0751 102.765 14.8178 101.998 14.8419Z" fill="#713584"/>
<path d="M118.48 27.4075C117.201 27.4303 115.945 27.0609 114.881 26.3489C113.797 25.6021 112.929 24.582 112.365 23.3919C111.725 22.0635 111.404 20.6036 111.43 19.1292C111.399 17.6395 111.719 16.1634 112.365 14.8206C112.937 13.6318 113.815 12.6171 114.909 11.8812C116.016 11.1631 117.313 10.7943 118.632 10.8226C119.593 10.8036 120.544 11.0205 121.402 11.4542C122.174 11.8504 122.852 12.4061 123.392 13.0845V11.1366H128.184V27.1358H123.301V25.2091C122.741 25.8887 122.035 26.4338 121.236 26.8041C120.376 27.2127 119.433 27.4191 118.48 27.4075ZM119.807 23.3389C120.306 23.3588 120.804 23.2663 121.262 23.0685C121.721 22.8706 122.129 22.5723 122.457 22.1956C123.121 21.4334 123.452 20.4066 123.452 19.1221C123.508 18.006 123.154 16.9081 122.457 16.0345C122.132 15.6534 121.724 15.3509 121.265 15.1498C120.807 14.9488 120.308 14.8543 119.807 14.8735C119.313 14.8553 118.821 14.9504 118.369 15.1516C117.917 15.3529 117.517 15.6549 117.199 16.0345C116.512 16.9123 116.165 18.0087 116.222 19.1221C116.222 20.4066 116.547 21.4334 117.199 22.1956C117.519 22.571 117.92 22.8689 118.372 23.067C118.824 23.265 119.314 23.358 119.807 23.3389Z" fill="#713584"/>
<path d="M132.419 33.7664V11.1367H137.006L137.094 12.8834C137.674 12.2343 138.393 11.7251 139.197 11.3943C140.088 11.0087 141.05 10.814 142.02 10.8226C143.314 10.8032 144.584 11.172 145.666 11.8812C146.756 12.6139 147.626 13.6302 148.181 14.8207C148.814 16.1625 149.129 17.6319 149.102 19.1151C149.129 20.5934 148.811 22.0576 148.174 23.3919C147.611 24.5816 146.737 25.5972 145.644 26.3314C144.361 27.1555 142.838 27.5227 141.32 27.3735C139.802 27.2243 138.379 26.5674 137.281 25.5092V33.7664H132.419ZM140.764 23.339C141.26 23.3567 141.754 23.2617 142.208 23.0613C142.662 22.8608 143.065 22.56 143.386 22.1816C144.08 21.3174 144.434 20.2292 144.381 19.1222C144.434 18.0175 144.085 16.931 143.4 16.0628C143.078 15.6811 142.673 15.3781 142.217 15.1769C141.76 14.9757 141.263 14.8816 140.764 14.9018C140.264 14.8824 139.766 14.9753 139.307 15.1738C138.848 15.3723 138.439 15.6712 138.111 16.0487C137.414 16.9169 137.061 18.0107 137.119 19.1222C137.067 20.2286 137.419 21.3162 138.111 22.1816C138.438 22.5642 138.849 22.8673 139.311 23.0678C139.773 23.2684 140.275 23.3611 140.778 23.339H140.764Z" fill="#713584"/>
<path d="M62.2571 16.2603V9.95447H57.811V11.553C56.5092 11.0093 55.1036 10.7591 53.6942 10.8201C52.2847 10.8811 50.9061 11.2518 49.6561 11.9059C47.7246 13.0297 46.317 14.8731 45.7416 17.0324C45.1662 19.1918 45.4699 21.4912 46.5861 23.4271C47.3252 24.6707 48.3857 25.6922 49.6561 26.3842C51.0285 27.0846 52.5474 27.4498 54.0882 27.4498C55.629 27.4498 57.1478 27.0846 58.5202 26.3842C59.8208 25.6772 60.9012 24.6253 61.6427 23.3441C62.3842 22.0628 62.7579 20.602 62.7229 19.1221C62.731 18.1486 62.5735 17.1809 62.2571 16.2603ZM56.7841 22.1074C56.4503 22.4885 56.0367 22.7914 55.5725 22.9945C55.1084 23.1976 54.6052 23.2959 54.0987 23.2824C53.591 23.2939 53.0869 23.1947 52.6214 22.9918C52.1558 22.7888 51.74 22.4871 51.4028 22.1074C50.677 21.2881 50.3053 20.2147 50.3689 19.1221C50.3065 18.0253 50.6779 16.948 51.4028 16.1227C51.7373 15.7379 52.152 15.4311 52.6177 15.2238C53.0835 15.0166 53.589 14.9138 54.0987 14.9229C54.6052 14.9094 55.1084 15.0077 55.5725 15.2108C56.0367 15.4139 56.4503 15.7168 56.7841 16.098C57.5054 16.9307 57.8737 18.0117 57.811 19.1115C57.8747 20.2061 57.5059 21.282 56.7841 22.1074Z" fill="#713584"/>
<path d="M20.5195 9.67575C23.1914 9.67575 25.3574 7.50976 25.3574 4.83787C25.3574 2.16599 23.1914 0 20.5195 0C17.8476 0 15.6816 2.16599 15.6816 4.83787C15.6816 7.50976 17.8476 9.67575 20.5195 9.67575Z" fill="#713584"/>
</svg>
