<svg width="96" height="97" viewBox="0 0 96 97" fill="none" xmlns="http://www.w3.org/2000/svg">
<g clip-path="url(#clip0_1_8913)">
<path d="M92 48.46L82.24 37.3L83.6 22.54L69.16 19.26L61.6 6.5L48 12.34L34.4 6.5L26.84 19.26L12.4 22.5L13.76 37.3L4 48.46L13.76 59.62L12.4 74.42L26.84 77.7L34.4 90.5L48 84.62L61.6 90.46L69.16 77.7L83.6 74.42L82.24 59.66L92 48.46ZM76.2 54.38L73.96 56.98L74.28 60.38L75 68.18L67.4 69.9L64.04 70.66L62.28 73.62L58.32 80.34L51.2 77.26L48 75.9L44.84 77.26L37.72 80.34L33.76 73.66L32 70.7L28.64 69.94L21.04 68.22L21.76 60.38L22.08 56.98L19.84 54.38L14.68 48.5L19.84 42.58L22.08 39.98L21.72 36.54L21 28.78L28.6 27.06L31.96 26.3L33.72 23.34L37.68 16.62L44.8 19.7L48 21.06L51.16 19.7L58.28 16.62L62.24 23.34L64 26.3L67.36 27.06L74.96 28.78L74.24 36.58L73.92 39.98L76.16 42.58L81.32 48.46L76.2 54.38Z" fill="#00C851"/>
<path d="M40.3602 55.5L31.0802 46.18L25.1602 52.14L40.3602 67.38L69.7202 37.94L63.8002 31.98L40.3602 55.5Z" fill="#00C851"/>
</g>
<defs>
<clipPath id="clip0_1_8913">
<rect width="96" height="96" fill="white" transform="translate(0 0.5)"/>
</clipPath>
</defs>
</svg>
